<?xml version="1.0" standalone="no"?>
<!DOCTYPE svg PUBLIC "-//W3C//DTD SVG 1.1//EN" "http://www.w3.org/Graphics/SVG/1.1/DTD/svg11.dtd" >
<svg xmlns="http://www.w3.org/2000/svg">
<metadata></metadata>
<defs>
<font id="pm_compactcbold" horiz-adv-x="710" >
<font-face units-per-em="2048" ascent="1589" descent="-459" />
<missing-glyph horiz-adv-x="477" />
<glyph horiz-adv-x="2048" />
<glyph horiz-adv-x="2048" />
<glyph unicode="&#xd;" horiz-adv-x="2048" />
<glyph unicode=" "  horiz-adv-x="477" />
<glyph unicode="&#x09;" horiz-adv-x="477" />
<glyph unicode="&#xa0;" horiz-adv-x="477" />
<glyph unicode="!" horiz-adv-x="430" d="M72 1434h286l-43 -1061h-200zM86 0v258h258v-258h-258z" />
<glyph unicode="&#x22;" horiz-adv-x="706" d="M72 1434h239l-69 -377h-103zM395 1434h240l-68 -377h-102z" />
<glyph unicode="#" horiz-adv-x="1075" d="M96 449l25 155h139l45 242h-141l26 155h142l30 175h156l-29 -175h191l31 175h155l-30 -175h143l-25 -155h-143l-45 -242h143l-24 -155h-144l-36 -191h-156l35 191h-191l-35 -191h-157l35 191h-140zM420 604h188l45 242h-190z" />
<glyph unicode="$" horiz-adv-x="831" d="M84 256v217h287v-268q0 -29 16 -38t29 -9q20 0 32.5 14t12.5 33v223q0 51 -21.5 76.5t-54.5 50.5l-213 162q-53 41 -70.5 86t-17.5 102v273q0 37 5 82t26.5 83.5t63.5 64.5t118 26h18v172h201v-172h19q76 0 117.5 -26t63 -64.5t27 -84t5.5 -81.5v-189h-287v240 q0 18 -12.5 32.5t-32.5 14.5q-12 0 -28.5 -9.5t-16.5 -37.5v-207q0 -31 3 -49.5t11 -30.5t20.5 -22.5t28.5 -24.5l207 -170q49 -41 78 -83t29 -118v-268q0 -37 -5.5 -82t-27 -84t-63.5 -64.5t-117 -25.5h-19v-215h-201v215h-18q-76 0 -118 25.5t-63.5 64.5t-26.5 84t-5 82z " />
<glyph unicode="%" horiz-adv-x="1241" d="M72 983v289q0 25 3 52.5t16 52t44 41t86 16.5h187q55 0 85.5 -19.5t44 -45.5t16.5 -53.5t3 -43.5v-291q0 -57 -16.5 -88t-40 -44t-49 -15.5t-43.5 -2.5h-187q-23 0 -49.5 2.5t-49 15.5t-36.5 44t-14 90zM190 0l660 1434h201l-660 -1434h-201zM272 985q0 -16 12.5 -29.5 t28.5 -13.5t29.5 13.5t13.5 29.5v295q0 14 -11 28.5t-32 14.5q-16 0 -28.5 -13.5t-12.5 -29.5v-295zM684 152v288q0 25 3 52.5t16.5 52t44 41t86.5 16.5h186q55 0 86 -19.5t44 -45t16 -53t3 -44.5v-290q0 -57 -16 -88t-39.5 -44.5t-49.5 -15.5t-44 -2h-186q-23 0 -49.5 2 t-49 15.5t-37 44t-14.5 90.5zM885 154q0 -16 12 -29.5t29 -13.5q16 0 29.5 13t13.5 30v295q0 14 -11.5 28.5t-31.5 14.5q-16 0 -28.5 -13.5t-12.5 -29.5v-295z" />
<glyph unicode="&#x26;" horiz-adv-x="837" d="M84 168v362q0 16 1 50t14.5 66t44 56.5t92.5 22.5v14q-29 -2 -55.5 6.5t-48 31t-35 61.5t-13.5 96v244q0 37 5 82t26.5 83.5t63.5 64.5t118 26h180q76 0 118 -26t63.5 -64.5t26.5 -84t5 -81.5v-86h-258v137q0 18 -12 32.5t-33 14.5q-12 0 -28.5 -9.5t-16.5 -37.5v-371 q0 -10 6 -28.5t39 -18.5q29 0 37 16.5t8 30.5v90h258v-131h101v-158h-101v-417q0 -31 11.5 -48.5t26.5 -25.5t29.5 -9t18.5 -1h15v-158h-181q-35 0 -78 7t-71 56q-45 -37 -107.5 -62.5t-111.5 -25.5q-25 0 -52.5 7.5t-51 28t-39 58t-15.5 99.5zM342 182q0 -29 16.5 -39 t28.5 -10q20 0 32.5 14.5t12.5 34.5v477q-33 -4 -51.5 -16t-26.5 -27.5t-10 -29t-2 -19.5v-385z" />
<glyph unicode="'" horiz-adv-x="382" d="M72 1434h239l-69 -377h-103z" />
<glyph unicode="(" horiz-adv-x="389" d="M72 -176v1413q0 68 30.5 106.5t73.5 59t89 26t77 5.5v-129q-29 2 -49.5 -17.5t-20.5 -52.5v-1409q0 -33 20.5 -52.5t49.5 -17.5v-129q-31 0 -77 5.5t-89 25.5t-73.5 59t-30.5 107z" />
<glyph unicode=")" horiz-adv-x="389" d="M47 -244q20 0 45 13.5t25 56.5v1409q0 43 -24.5 56.5t-45.5 13.5v129q43 0 90 -7.5t87 -29t66.5 -60.5t26.5 -100v-1413q0 -61 -26.5 -100t-66.5 -60.5t-87 -29t-90 -7.5v129z" />
<glyph unicode="*" horiz-adv-x="821" d="M100 1141l58 174l164 -53v172h180v-172l164 53l55 -174l-164 -51l102 -142l-147 -104l-100 139l-101 -139l-149 104l104 142z" />
<glyph unicode="+" horiz-adv-x="983" d="M72 631v172h334v334h172v-334h333v-172h-333v-334h-172v334h-334z" />
<glyph unicode="," horiz-adv-x="401" d="M43 -258q53 47 86 112.5t31 145.5h-88v258h258v-258q0 -47 -13.5 -110.5t-72.5 -147.5h-201z" />
<glyph unicode="-" horiz-adv-x="487" d="M72 530v201h344v-201h-344z" />
<glyph unicode="." horiz-adv-x="401" d="M72 0v258h258v-258h-258z" />
<glyph unicode="/" horiz-adv-x="518" d="M0 -373l346 1807h172l-346 -1807h-172z" />
<glyph unicode="0" horiz-adv-x="831" d="M84 256v922q0 37 5 82t26.5 83.5t63.5 64.5t118 26h238q76 0 117.5 -26t63 -64.5t27 -84t5.5 -81.5v-922q0 -37 -5.5 -82t-27 -84t-63.5 -64.5t-117 -25.5h-238q-76 0 -118 25.5t-63.5 64.5t-26.5 84t-5 82zM371 205q0 -29 16 -38t29 -9q12 0 28.5 9t16.5 38v1024 q0 29 -16.5 38t-28.5 9t-28.5 -9.5t-16.5 -37.5v-1024z" />
<glyph unicode="1" horiz-adv-x="831" d="M190 1038v213q72 6 121 56.5t60 126.5h245v-1434h-286v1096q-25 -20 -53.5 -30.5t-86.5 -27.5z" />
<glyph unicode="2" horiz-adv-x="831" d="M84 0v164q0 68 13.5 124t41 110.5t68.5 111.5t98 127q49 59 80 105t47.5 86t22.5 76t6 77v248q0 29 -16.5 38t-28.5 9t-28.5 -9.5t-16.5 -37.5v-225h-287v174q0 37 5 82t26.5 83.5t63.5 64.5t118 26h238q76 0 117.5 -26t63 -64.5t27 -84t5.5 -81.5v-197 q0 -80 -12.5 -138.5t-35 -105.5t-52.5 -89t-66 -87q-66 -82 -108 -140.5t-66.5 -102.5t-32.5 -81.5t-4 -78.5h377v-158h-664z" />
<glyph unicode="3" horiz-adv-x="831" d="M84 256v203h287v-254q0 -29 16 -38t29 -9q12 0 28.5 9t16.5 38v375q0 16 -3 33.5t-14.5 30.5t-35 21.5t-62.5 8.5h-43v157h47q41 0 63.5 9.5t33 24t12.5 34t2 39.5v291q0 29 -16.5 38t-28.5 9t-28.5 -9.5t-16.5 -37.5v-225h-287v174q0 37 5 82t26.5 83.5t63.5 64.5 t118 26h238q76 0 117.5 -26t63 -64.5t27 -84t5.5 -81.5v-215q0 -68 -21.5 -107t-52.5 -59.5t-65 -25.5t-56 -3v-14q72 2 112 -21.5t58 -55.5t21.5 -65.5t3.5 -52.5v-303q0 -37 -5.5 -82t-27 -84t-63.5 -64.5t-117 -25.5h-238q-76 0 -118 25.5t-63.5 64.5t-26.5 84t-5 82z " />
<glyph unicode="4" horiz-adv-x="831" d="M29 344v170l254 920h434v-932h86v-158h-86v-344h-287v344h-401zM272 502h158v645h-10z" />
<glyph unicode="5" horiz-adv-x="833" d="M84 256v203h287v-254q0 -29 17.5 -38t29.5 -9t28.5 9t16.5 38v608q0 29 -16.5 38t-28.5 9t-29.5 -9t-17.5 -38v-96h-287v717h666v-158h-379v-330q53 39 105 62.5t114 23.5q55 0 87 -19.5t48 -47t20.5 -57t4.5 -50.5v-602q0 -37 -5.5 -82t-27 -84t-63.5 -64.5t-117 -25.5 h-238q-76 0 -119 25.5t-64.5 64.5t-26.5 84t-5 82z" />
<glyph unicode="6" horiz-adv-x="831" d="M84 256v922q0 37 5 82t26.5 83.5t63.5 64.5t118 26h238q76 0 117.5 -26t63 -64.5t27 -84t5.5 -81.5v-174h-287v225q0 29 -16.5 38t-28.5 9t-28.5 -9.5t-16.5 -37.5v-426q78 59 134 72.5t85 13.5q53 0 85 -19.5t48 -47t20.5 -57.5t4.5 -50v-459q0 -37 -5.5 -82t-27 -84 t-63.5 -64.5t-117 -25.5h-238q-76 0 -118 25.5t-63.5 64.5t-26.5 84t-5 82zM371 205q0 -29 16 -38t29 -9q12 0 28.5 9t16.5 38v465q0 31 -17.5 39t-27.5 8t-27.5 -8.5t-17.5 -38.5v-465z" />
<glyph unicode="7" horiz-adv-x="831" d="M72 1276v158h688v-158l-287 -1276h-287l287 1276h-401z" />
<glyph unicode="8" horiz-adv-x="831" d="M84 256v303q0 18 3 52t21.5 66t58.5 55.5t112 21.5v14q-23 -2 -57 3t-64.5 25.5t-52 59.5t-21.5 107v215q0 37 5 82t26.5 83.5t63.5 64.5t118 26h238q76 0 117.5 -26t63 -64.5t27 -84t5.5 -81.5v-215q0 -68 -21.5 -107t-52.5 -59.5t-65 -25.5t-56 -3v-14q72 2 112 -21.5 t58 -55.5t21.5 -65.5t3.5 -52.5v-303q0 -37 -5.5 -82t-27 -84t-63.5 -64.5t-117 -25.5h-238q-76 0 -118 25.5t-63.5 64.5t-26.5 84t-5 82zM371 205q0 -29 16 -38t29 -9q12 0 28.5 9t16.5 38v422q0 29 -16.5 38t-28.5 9t-28.5 -9.5t-16.5 -37.5v-422zM371 879q0 -29 16 -38.5 t29 -9.5q12 0 28.5 9.5t16.5 38.5v350q0 29 -16.5 38t-28.5 9t-28.5 -9.5t-16.5 -37.5v-350z" />
<glyph unicode="9" horiz-adv-x="831" d="M84 256v203h287v-254q0 -29 16 -38t29 -9q12 0 28.5 9t16.5 38v454q-78 -59 -134.5 -72.5t-84.5 -13.5q-53 0 -85 19.5t-48.5 47.5t-20.5 57.5t-4 50.5v430q0 37 5 82t26.5 83.5t63.5 64.5t118 26h238q76 0 117.5 -26t63 -64.5t27 -84t5.5 -81.5v-922q0 -37 -5.5 -82 t-27 -84t-63.5 -64.5t-117 -25.5h-238q-76 0 -118 25.5t-63.5 64.5t-26.5 84t-5 82zM371 793q0 -31 17.5 -39.5t27.5 -8.5t27.5 8.5t17.5 39.5v436q0 29 -16.5 38t-28.5 9t-28.5 -9.5t-16.5 -37.5v-436z" />
<glyph unicode=":" horiz-adv-x="401" d="M72 0v258h258v-258h-258zM72 889v258h258v-258h-258z" />
<glyph unicode=";" horiz-adv-x="401" d="M43 -258q53 47 86 112.5t31 145.5h-88v258h258v-258q0 -47 -13.5 -110.5t-72.5 -147.5h-201zM72 889v258h258v-258h-258z" />
<glyph unicode="&#x3c;" horiz-adv-x="983" d="M72 631v172l839 373v-179l-657 -280l657 -281v-178z" />
<glyph unicode="=" horiz-adv-x="983" d="M72 459v172h839v-172h-839zM72 803v172h839v-172h-839z" />
<glyph unicode="&#x3e;" horiz-adv-x="983" d="M72 258v178l657 281l-657 280v179l839 -373v-172z" />
<glyph unicode="?" horiz-adv-x="749" d="M72 1004v174q0 37 5 82t26.5 83.5t63.5 64.5t118 26h180q76 0 118 -26t63.5 -64.5t26.5 -84t5 -81.5v-168q0 -53 -8 -96.5t-41 -108.5q-20 -41 -42 -79t-40.5 -75t-30.5 -74.5t-12 -78.5v-125h-258v127q0 47 9 87t38 99q20 41 42.5 78t41 73.5t31 75.5t12.5 88v228 q0 29 -16.5 38t-28.5 9t-28.5 -9.5t-16.5 -37.5v-225h-258zM246 0v258h258v-258h-258z" />
<glyph unicode="@" horiz-adv-x="1234" d="M72 264v905q0 96 29.5 149.5t70.5 79t87 31t77 5.5h563q39 0 85 -6.5t86 -33t66.5 -79.5t26.5 -146v-604q0 -100 -25.5 -157.5t-65.5 -87t-90 -38t-99 -8.5q-20 0 -50 2.5t-62 13.5t-60.5 32.5t-44.5 62.5q-18 -41 -42 -63.5t-47.5 -32.5t-44 -12.5t-30.5 -2.5 q-49 0 -77 19.5t-40 44t-14 49.5t-2 37v539q0 33 3 69.5t16 68.5t44 52.5t86 20.5q43 0 79 -32t56 -73v78h201v-651q0 -27 16.5 -52.5t51.5 -25.5q47 0 58 37t11 77v576q0 55 -4 91t-22.5 56.5t-54.5 27.5t-99 7h-391q-37 0 -70 -1t-57.5 -18.5t-38.5 -58.5t-14 -118v-754 q0 -78 14 -118t38.5 -57.5t57.5 -19.5t70 -2h743v-143h-827q-31 0 -77 5t-87 30.5t-70.5 79t-29.5 149.5zM569 500q0 -4 1 -13.5t4.5 -18.5t11.5 -16.5t24 -7.5q31 0 37 22.5t6 33.5v461q0 12 -6 34.5t-37 22.5q-16 0 -24 -7t-11.5 -16.5t-4.5 -19.5t-1 -14v-461z" />
<glyph unicode="A" horiz-adv-x="843" d="M47 0l150 1434h450l150 -1434h-281l-27 381h-135l-26 -381h-281zM365 539h114l-49 718h-16z" />
<glyph unicode="B" horiz-adv-x="831" d="M84 0v1434h451q76 0 117.5 -26t63 -64.5t27 -84t5.5 -81.5v-230q0 -59 -18.5 -97t-47.5 -61q-28 -22 -62 -30q-27 -6 -54 -6h-13v-15h11q64 1 101 -21q40 -24 58 -55.5t21.5 -65.5t3.5 -52v-289q0 -37 -5.5 -82t-27 -84t-63.5 -64.5t-117 -25.5h-451zM371 158h37 q23 0 38 18.5t15 52.5v359q0 35 -15.5 53t-37.5 18h-37v-501zM371 817h37q23 0 38 18.5t15 53.5v315q0 35 -15.5 53.5t-37.5 18.5h-37v-459z" />
<glyph unicode="C" horiz-adv-x="831" d="M84 256v922q0 37 5 82t26.5 83.5t63.5 64.5t118 26h238q76 0 117.5 -26t63 -64.5t27 -84t5.5 -81.5v-203h-287v254q0 18 -12.5 32.5t-32.5 14.5q-12 0 -28.5 -9.5t-16.5 -37.5v-1024q0 -29 16 -38t29 -9q20 0 32.5 14t12.5 33v297h287v-246q0 -37 -5.5 -82t-27 -84 t-63.5 -64.5t-117 -25.5h-238q-76 0 -118 25.5t-63.5 64.5t-26.5 84t-5 82z" />
<glyph unicode="D" horiz-adv-x="831" d="M84 0v1434h451q76 0 117.5 -26t63 -64.5t27 -84t5.5 -81.5v-922q0 -37 -5.5 -82t-27 -84t-63.5 -64.5t-117 -25.5h-451zM371 158h37q23 0 38 18.5t15 52.5v975q0 35 -15.5 53.5t-37.5 18.5h-37v-1118z" />
<glyph unicode="E" horiz-adv-x="724" d="M84 0v1434h582v-158h-295v-445h295v-157h-295v-516h307v-158h-594z" />
<glyph unicode="F" horiz-adv-x="675" d="M84 0v1434h545v-158h-258v-473h239v-158h-239v-645h-287z" />
<glyph unicode="G" horiz-adv-x="831" d="M84 256v922q0 37 5 82t26.5 83.5t63.5 64.5t118 26h238q76 0 117.5 -26t63 -64.5t27 -84t5.5 -81.5v-203h-287v254q0 18 -12.5 32.5t-32.5 14.5q-12 0 -28.5 -9.5t-16.5 -37.5v-1024q0 -29 16 -38t29 -9q20 0 32.5 14t12.5 33v340h-43v157h330v-446q0 -37 -5.5 -82 t-27 -84t-63.5 -64.5t-117 -25.5h-238q-76 0 -118 25.5t-63.5 64.5t-26.5 84t-5 82z" />
<glyph unicode="H" horiz-adv-x="831" d="M84 0v1434h287v-603h90v603h287v-1434h-287v674h-90v-674h-287z" />
<glyph unicode="I" horiz-adv-x="454" d="M84 0v1434h287v-1434h-287z" />
<glyph unicode="J" horiz-adv-x="497" d="M47 0v158h29q16 0 33.5 13t17.5 58v1205h287v-1178q0 -37 -5.5 -82t-26 -84t-63.5 -64.5t-118 -25.5h-154z" />
<glyph unicode="K" horiz-adv-x="837" d="M84 0v1434h287v-617h10l94 617h287l-146 -689l175 -745h-287l-123 659h-10v-659h-287z" />
<glyph unicode="L" horiz-adv-x="675" d="M84 0v1434h287v-1276h258v-158h-545z" />
<glyph unicode="M" horiz-adv-x="1286" d="M84 0v1434h373l186 -1008l186 1008h373v-1434h-287v899h-10l-147 -899h-230l-147 899h-10v-899h-287z" />
<glyph unicode="N" horiz-adv-x="874" d="M84 0v1434h287l123 -691h10v691h287v-1434h-287l-123 690h-10v-690h-287z" />
<glyph unicode="O" horiz-adv-x="831" d="M84 256v922q0 37 5 82t26.5 83.5t63.5 64.5t118 26h238q76 0 117.5 -26t63 -64.5t27 -84t5.5 -81.5v-922q0 -37 -5.5 -82t-27 -84t-63.5 -64.5t-117 -25.5h-238q-76 0 -118 25.5t-63.5 64.5t-26.5 84t-5 82zM371 205q0 -29 16 -38t29 -9q20 0 32.5 14t12.5 33v1024 q0 18 -12.5 32.5t-32.5 14.5q-12 0 -28.5 -9.5t-16.5 -37.5v-1024z" />
<glyph unicode="P" horiz-adv-x="819" d="M84 0v1434h451q76 0 117.5 -26t63 -64.5t27 -84t5.5 -81.5v-435q0 -37 -5.5 -82t-27 -83.5t-63.5 -64.5t-117 -26h-164v-487h-287zM371 645h37q23 0 38 18.5t15 53.5v487q0 35 -15.5 53.5t-37.5 18.5h-37v-631z" />
<glyph unicode="Q" horiz-adv-x="831" d="M84 256v922q0 37 5 82t26.5 83.5t63.5 64.5t118 26h238q76 0 117.5 -26t63 -64.5t27 -84t5.5 -81.5v-922q0 -33 -5.5 -78t-27 -86t-63.5 -68q-37 -25 -98 -25q-9 0 -19 1v-258h-238v258q-10 -1 -19 -1q-62 0 -99 25q-42 27 -63.5 68t-26.5 86t-5 78zM371 205 q0 -29 16 -38t29 -9q20 0 32.5 14t12.5 33v1024q0 18 -12.5 32.5t-32.5 14.5q-12 0 -28.5 -9.5t-16.5 -37.5v-1024z" />
<glyph unicode="R" horiz-adv-x="831" d="M84 0v1434h451q76 0 117.5 -26t63 -64.5t27 -84t5.5 -81.5v-445q0 -14 -2.5 -37.5t-12.5 -48t-30.5 -49.5t-59.5 -39l141 -559h-295l-98 530h-20v-530h-287zM371 688h37q23 0 38 18.5t15 53.5v444q0 35 -15.5 53.5t-37.5 18.5h-37v-588z" />
<glyph unicode="S" horiz-adv-x="831" d="M84 256v217h287v-268q0 -29 16 -38t29 -9q20 0 32.5 14t12.5 33v223q0 51 -21.5 76.5t-54.5 50.5l-213 162q-53 41 -70.5 86t-17.5 102v273q0 37 5 82t26.5 83.5t63.5 64.5t118 26h238q76 0 117.5 -26t63 -64.5t27 -84t5.5 -81.5v-189h-287v240q0 18 -12.5 32.5 t-32.5 14.5q-12 0 -28.5 -9.5t-16.5 -37.5v-207q0 -31 3 -49.5t11 -30.5t20.5 -22.5t28.5 -24.5l207 -170q49 -41 78 -83t29 -118v-268q0 -37 -5.5 -82t-27 -84t-63.5 -64.5t-117 -25.5h-238q-76 0 -118 25.5t-63.5 64.5t-26.5 84t-5 82z" />
<glyph unicode="T" horiz-adv-x="724" d="M47 1276v158h631v-158h-172v-1276h-287v1276h-172z" />
<glyph unicode="U" horiz-adv-x="831" d="M84 256v1178h287v-1229q0 -29 16 -38t29 -9q20 0 32.5 14t12.5 33v1229h287v-1178q0 -37 -5.5 -82t-27 -84t-63.5 -64.5t-117 -25.5h-238q-76 0 -118 25.5t-63.5 64.5t-26.5 84t-5 82z" />
<glyph unicode="V" horiz-adv-x="843" d="M47 1434h291l78 -1057h12l78 1057h291l-185 -1434h-381z" />
<glyph unicode="W" horiz-adv-x="1374" d="M47 1434h295l74 -1049h10l86 1049h350l86 -1049h10l74 1049h295l-180 -1434h-377l-76 975h-14l-76 -975h-377z" />
<glyph unicode="X" horiz-adv-x="829" d="M47 0l148 731l-140 703h291l64 -502h10l63 502h291l-139 -703l147 -731h-293l-69 516h-10l-70 -516h-293z" />
<glyph unicode="Y" horiz-adv-x="835" d="M47 1434h303l62 -545h12l61 545h303l-227 -1047v-387h-287v387z" />
<glyph unicode="Z" horiz-adv-x="679" d="M47 0v180l275 1096h-246v158h540v-179l-274 -1097h291v-158h-586z" />
<glyph unicode="[" horiz-adv-x="487" d="M72 -373v1807h344v-150h-121v-1507h121v-150h-344z" />
<glyph unicode="\" horiz-adv-x="518" d="M0 1434h172l346 -1807h-172z" />
<glyph unicode="]" horiz-adv-x="487" d="M72 -223h121v1507h-121v150h344v-1807h-344v150z" />
<glyph unicode="^" horiz-adv-x="952" d="M72 1004l313 430h182l314 -430h-187l-219 303l-217 -303h-186z" />
<glyph unicode="_" horiz-adv-x="899" d="M0 -201h899v-172h-899v172z" />
<glyph unicode="`" horiz-adv-x="503" d="M72 1434h252l108 -230h-166z" />
<glyph unicode="a" d="M72 166v291q0 68 46 103.5t140 78.5q31 14 56.5 27.5t44 30t28.5 40t10 58.5v163q0 23 -15 31t-26 8q-16 0 -29.5 -11t-13.5 -28v-176h-241v162q0 74 18.5 115t46 60.5t61 23.5t62.5 4h193q68 0 105.5 -18.5t55 -48t21.5 -65.5t4 -71v-944h-242v51q-37 -31 -88 -47 t-98 -16q-49 0 -78 18.5t-42 45t-16 58t-3 56.5zM313 188q0 -10 10.5 -23t32.5 -13q41 0 41 36v373q-61 -18 -72.5 -49t-11.5 -57v-267z" />
<glyph unicode="b" d="M72 0v1434h241v-338q37 29 87.5 46t101.5 17q53 0 81.5 -22.5t41 -51t13.5 -59.5t1 -45v-815q0 -16 -1 -46t-13.5 -58.5t-41 -51t-81.5 -22.5q-51 0 -101.5 17.5t-87.5 45.5v-51h-241zM313 188q0 -10 10.5 -23t32.5 -13q41 0 41 36v768q0 23 -15 31t-26 8 q-16 0 -29.5 -11t-13.5 -28v-768z" />
<glyph unicode="c" d="M72 203v741q0 74 18.5 115t46 60.5t61 23.5t62.5 4h193q68 0 105.5 -18.5t55 -48t21.5 -65.5t4 -71v-156h-242v170q0 23 -15 31t-26 8q-16 0 -29.5 -11t-13.5 -28v-772q0 -10 10.5 -23t32.5 -13q41 0 41 36v214h242v-197q0 -35 -4 -71t-21.5 -65.5t-55.5 -48t-105 -18.5 h-193q-29 0 -62.5 4t-61 23.5t-46 60.5t-18.5 115z" />
<glyph unicode="d" d="M72 166v815q0 25 3 56.5t16 58t42 45t78 18.5q47 0 98 -16.5t88 -46.5v338h242v-1434h-242v51q-37 -31 -88 -47t-98 -16q-49 0 -78 18.5t-42 45t-16 58t-3 56.5zM313 188q0 -10 10.5 -23t32.5 -13q41 0 41 36v768q0 23 -15 31t-26 8q-16 0 -29.5 -11t-13.5 -28v-768z" />
<glyph unicode="e" d="M72 203v741q0 74 18.5 115t46 60.5t61 23.5t62.5 4h193q68 0 105.5 -18.5t55 -48t21.5 -65.5t4 -71v-426h-326v-332q0 -10 10.5 -23t32.5 -13q41 0 41 36v214h242v-197q0 -35 -4 -71t-21.5 -65.5t-55.5 -48t-105 -18.5h-193q-29 0 -62.5 4t-61 23.5t-46 60.5t-18.5 115z M313 668h84v290q0 23 -15 31t-26 8q-16 0 -29.5 -11t-13.5 -28v-290z" />
<glyph unicode="f" horiz-adv-x="516" d="M25 997v150h106v84q0 31 4 66.5t24.5 65.5t62.5 50.5t118 20.5h152v-150h-17q-12 0 -29.5 -2t-34 -11t-27.5 -27.5t-11 -51.5v-45h119v-150h-119v-997h-242v997h-106z" />
<glyph unicode="g" d="M72 -129h241v-55q0 -16 13.5 -27.5t29.5 -11.5q10 0 25.5 8t15.5 31v260q-37 -35 -87 -55.5t-99 -20.5q-55 0 -84 23.5t-41 54.5t-13 62.5t-1 49.5v791q0 25 3 56.5t16 58t42 45t78 18.5q47 0 98 -16.5t88 -46.5v51h242v-1317q0 -35 -4 -70.5t-21.5 -65.5t-55.5 -48.5 t-105 -18.5h-193q-29 0 -62.5 4t-61 23.5t-46 60.5t-18.5 115v41zM313 215q0 -20 15.5 -29.5t27.5 -9.5q10 0 25.5 7t15.5 32v741q0 23 -15 31t-26 8q-16 0 -29.5 -11t-13.5 -28v-741z" />
<glyph unicode="h" d="M72 0v1434h241v-338q37 29 87.5 46t101.5 17q53 0 81.5 -22.5t41 -51t13.5 -59.5t1 -45v-981h-242v956q0 23 -15 31t-26 8q-16 0 -29.5 -11t-13.5 -28v-956h-241z" />
<glyph unicode="i" horiz-adv-x="385" d="M72 0v1147h241v-1147h-241zM72 1233v201h241v-201h-241z" />
<glyph unicode="j" horiz-adv-x="385" d="M72 -373v1520h241v-1520h-241zM72 1233v201h241v-201h-241z" />
<glyph unicode="k" horiz-adv-x="698" d="M72 0v1434h241v-783h11l88 496h247l-122 -553l137 -594h-246l-104 541h-11v-541h-241z" />
<glyph unicode="l" horiz-adv-x="385" d="M72 0v1434h241v-1434h-241z" />
<glyph unicode="m" horiz-adv-x="1036" d="M72 0v1147h241v-51q45 35 96.5 49t92.5 14q18 0 59 -12t70 -60q6 6 24.5 17.5t44 24t57 21.5t68.5 9q53 0 82 -22.5t41.5 -51t14.5 -59.5t2 -45v-981h-242v956q0 23 -15.5 31t-25.5 8q-16 0 -29.5 -11t-13.5 -28v-956h-242v956q0 23 -15 31t-26 8q-16 0 -29.5 -11 t-13.5 -28v-956h-241z" />
<glyph unicode="n" d="M72 0v1147h241v-51q37 29 87.5 46t101.5 17q53 0 81.5 -22.5t41 -51t13.5 -59.5t1 -45v-981h-242v956q0 23 -15 31t-26 8q-16 0 -29.5 -11t-13.5 -28v-956h-241z" />
<glyph unicode="o" d="M72 203v741q0 74 18.5 115t46 60.5t61 23.5t62.5 4h193q68 0 105.5 -18.5t55 -48t21.5 -65.5t4 -71v-741q0 -35 -4 -71t-21.5 -65.5t-55.5 -48t-105 -18.5h-193q-29 0 -62.5 4t-61 23.5t-46 60.5t-18.5 115zM313 186q0 -10 10.5 -23t32.5 -13q41 0 41 36v772q0 23 -15 31 t-26 8q-16 0 -29.5 -11t-13.5 -28v-772z" />
<glyph unicode="p" d="M72 -373v1520h241v-51q37 29 87.5 46t101.5 17q53 0 81.5 -22.5t41 -51t13.5 -59.5t1 -45v-815q0 -16 -1 -46t-13.5 -58.5t-41 -51t-81.5 -22.5q-51 0 -101.5 17.5t-87.5 45.5v-424h-241zM313 188q0 -10 10.5 -23t32.5 -13q41 0 41 36v768q0 23 -15 31t-26 8 q-16 0 -29.5 -11t-13.5 -28v-768z" />
<glyph unicode="q" d="M72 166v815q0 25 3 56.5t16 58t42 45t78 18.5q47 0 98 -16.5t88 -46.5v51h242v-1520h-242v424q-37 -31 -88 -47t-98 -16q-49 0 -78 18.5t-42 45t-16 58t-3 56.5zM313 188q0 -10 10.5 -23t32.5 -13q41 0 41 36v768q0 23 -15 31t-26 8q-16 0 -29.5 -11t-13.5 -28v-768z" />
<glyph unicode="r" horiz-adv-x="686" d="M72 0v1147h241v-51q37 29 87.5 46t101.5 17q53 0 81.5 -22.5t41 -51t13.5 -59.5t1 -45v-236h-242v211q0 23 -15 31t-26 8q-16 0 -29.5 -11t-13.5 -28v-956h-241z" />
<glyph unicode="s" d="M72 203v170h241v-187q0 -10 10.5 -23t32.5 -13q41 0 41 36v170q0 27 -5 44.5t-14 28.5t-23.5 20.5t-30.5 21.5l-183 145q-51 41 -60 81t-9 89v158q0 76 19.5 118t48 60.5t61 21.5t59.5 3h193q27 0 59.5 -3t61 -22.5t47 -60.5t18.5 -117v-141h-242v155q0 23 -15 31t-26 8 q-16 0 -29.5 -11t-13.5 -28v-124q0 -43 28 -70t50 -43l168 -123q59 -43 69.5 -92t10.5 -100v-203q0 -76 -18.5 -117t-47 -60.5t-61.5 -22.5t-59 -3h-193q-27 0 -59.5 3t-61 21.5t-48 59.5t-19.5 119z" />
<glyph unicode="t" horiz-adv-x="509" d="M25 997v150h96v287h241v-287h123v-150h-123v-741q0 -16 2.5 -35.5t12.5 -35t31.5 -25.5t62.5 -10h14v-150h-161q-29 0 -64 3t-65.5 21.5t-52 59.5t-21.5 119v794h-96z" />
<glyph unicode="u" d="M72 166v981h241v-959q0 -10 10.5 -23t32.5 -13q41 0 41 36v959h242v-1147h-242v51q-37 -31 -88 -47t-98 -16q-49 0 -78 18.5t-42 45t-16 58t-3 56.5z" />
<glyph unicode="v" horiz-adv-x="655" d="M25 1147h249l50 -731h8l49 731h250l-152 -1147h-303z" />
<glyph unicode="w" horiz-adv-x="1114" d="M25 1147h258l53 -705h10l100 705h222l100 -707h10l53 707h259l-166 -1147h-258l-109 629l-108 -629h-259z" />
<glyph unicode="x" horiz-adv-x="702" d="M37 0l125 600l-123 547h248l59 -457h12l60 457h248l-125 -547l125 -600h-248l-62 510h-10l-61 -510h-248z" />
<glyph unicode="y" d="M72 -129h241v-55q0 -16 13.5 -27.5t29.5 -11.5q10 0 25.5 8t15.5 31v260q-37 -35 -87 -55.5t-99 -20.5q-55 0 -84 23.5t-41 54.5t-13 62.5t-1 49.5v957h241v-932q0 -20 15.5 -29.5t27.5 -9.5q10 0 25.5 7t15.5 32v932h242v-1317q0 -35 -4 -70.5t-21.5 -65.5t-55.5 -48.5 t-105 -18.5h-193q-29 0 -62.5 4t-61 23.5t-46 60.5t-18.5 115v41z" />
<glyph unicode="z" horiz-adv-x="577" d="M37 0v170l239 827h-225v150h477v-170l-227 -827h240v-150h-504z" />
<glyph unicode="{" horiz-adv-x="561" d="M96 455v151q25 -2 38 7.5t20.5 26.5t8.5 41t1 48v477q0 80 31.5 125t73.5 67.5t84 29t65 6.5h47v-150q-27 -2 -41 -14.5t-21.5 -31.5t-8.5 -45t-1 -54v-428q0 -31 -2 -59.5t-10 -53.5t-25.5 -42.5t-48.5 -25.5q31 -8 48.5 -25.5t25.5 -42t10 -53t2 -59.5v-428 q0 -29 1 -54.5t8.5 -45t21.5 -31.5t41 -14v-150h-47q-23 0 -65 6.5t-84 29t-73.5 67.5t-31.5 125v477q0 25 -1 48t-8.5 40.5t-20.5 27t-38 7.5z" />
<glyph unicode="|" horiz-adv-x="364" d="M96 -459v2157h172v-2157h-172z" />
<glyph unicode="}" horiz-adv-x="561" d="M96 -223q51 4 61.5 45t10.5 100v428q0 31 2 60.5t9 53t24.5 41t48.5 25.5q-31 8 -48.5 25.5t-24.5 41.5t-9 53.5t-2 60.5v428q0 59 -10.5 100t-61.5 45v150h47q20 0 63.5 -6.5t85.5 -29t73.5 -67.5t31.5 -125v-477q0 -25 1 -48.5t7.5 -40.5t19.5 -26.5t40 -7.5v-151 q-27 2 -40 -7.5t-19.5 -27t-7.5 -41t-1 -47.5v-477q0 -80 -31.5 -125t-73.5 -67.5t-85 -29t-64 -6.5h-47v150z" />
<glyph unicode="~" horiz-adv-x="1032" d="M96 573v201q51 41 121 78t135 37q59 0 101.5 -23.5t76.5 -48.5q33 -23 76 -47.5t103 -24.5q33 0 66.5 12.5t63 30t55.5 37t42 35.5v-201q-18 -14 -47 -33.5t-62.5 -38t-71.5 -30.5t-75 -12q-59 0 -101 23.5t-77 47.5q-33 23 -76 47.5t-102 24.5q-35 0 -69 -12 t-63.5 -29.5t-54 -38t-41.5 -35.5z" />
<glyph unicode="&#xa9;" horiz-adv-x="1230" d="M72 264v905q0 96 29.5 149.5t70.5 79t87 31t77 5.5h559q31 0 77 -5.5t87 -31t70.5 -78.5t29.5 -150v-905q0 -96 -29.5 -149.5t-70.5 -79t-87 -30.5t-77 -5h-559q-31 0 -77 5t-87 30.5t-70.5 79t-29.5 149.5zM244 340q0 -78 14 -118t39 -57.5t57.5 -19.5t69.5 -2h383 q37 0 69.5 2t57 19.5t39 57.5t14.5 118v754q0 78 -14.5 118.5t-39 58t-57 18.5t-69.5 1h-383q-37 0 -69.5 -1t-57.5 -18.5t-39 -58.5t-14 -118v-754zM373 469v496q0 29 3 64.5t21.5 66t56.5 52t107 21.5h109q68 0 105.5 -19.5t56 -50t22.5 -66.5t4 -68v-154h-201v172 q0 16 -14 26.5t-29 10.5q-16 0 -28.5 -10.5t-12.5 -26.5v-530q0 -16 12.5 -26.5t28.5 -10.5q14 0 28.5 10t14.5 27v215h201v-199q0 -78 -19.5 -119t-48 -59.5t-61.5 -21.5t-59 -3h-109q-29 0 -62.5 4t-61 23.5t-46 60.5t-18.5 115z" />
<glyph unicode="&#xab;" horiz-adv-x="745" d="M72 588l100 430h201l-103 -430l103 -430h-201zM373 588l100 430h201l-103 -430l103 -430h-201z" />
<glyph unicode="&#xad;" horiz-adv-x="487" d="M72 530v201h344v-201h-344z" />
<glyph unicode="&#xae;" horiz-adv-x="1280" d="M96 264v905q0 92 27 145.5t66.5 80t86 33t84.5 6.5h558q94 0 148 -29t79.5 -70t32 -86t6.5 -80v-905q0 -35 -6.5 -80t-32 -86t-79.5 -69.5t-148 -28.5h-558q-39 0 -85 6t-85.5 33t-66.5 80t-27 145zM268 340q0 -78 14.5 -118t39 -57.5t57.5 -19.5t70 -2h380q33 0 66 2 t59.5 19.5t42 57.5t15.5 118v754q0 78 -15.5 118.5t-42 58t-59.5 18.5t-66 1h-380q-37 0 -70 -1t-57.5 -18.5t-39 -58.5t-14.5 -118v-754zM397 266v903h297q68 0 106 -19.5t56 -50t22.5 -66.5t4.5 -68v-232q0 -10 -2 -29.5t-11.5 -39t-27 -39t-49.5 -29.5l112 -330h-203 l-94 312h-10v-312h-201zM598 727h31q29 0 41 14.5t12 30.5v203q0 16 -12.5 30.5t-40.5 14.5h-31v-293z" />
<glyph unicode="&#xbb;" horiz-adv-x="745" d="M72 158l102 430l-102 430h200l101 -430l-101 -430h-200zM373 158l102 430l-102 430h200l101 -430l-101 -430h-200z" />
<glyph unicode="&#x2c6;" horiz-adv-x="688" d="M72 1204l135 230h274l135 -230h-143l-129 129l-129 -129h-143z" />
<glyph unicode="&#x2dc;" horiz-adv-x="688" d="M72 1219q4 35 15 72.5t30.5 69.5t47.5 52.5t64 20.5q35 0 64 -12.5t55 -26.5q27 -14 42.5 -19.5t25.5 -5.5q25 0 37 18.5t20 45.5h143q-10 -43 -22 -84t-31.5 -73t-45 -50.5t-58.5 -18.5q-16 0 -38 5.5t-38 13.5q-27 12 -53.5 29.5t-57.5 17.5q-23 0 -38 -16.5t-19 -38.5 h-143z" />
<glyph unicode="&#x401;" horiz-adv-x="724" d="M84 0v1434h582v-158h-295v-445h295v-157h-295v-516h307v-158h-594zM100 1520v200h238v-200h-238zM428 1520v200h238v-200h-238z" />
<glyph unicode="&#x402;" horiz-adv-x="925" d="M47 1276v158h717v-158h-287v-358h164q76 0 119 -26t63.5 -65t25.5 -84t5 -81v-406q0 -37 -5 -82t-25.5 -84t-63.5 -64.5t-119 -25.5h-125v158q12 2 31.5 12t19.5 45v473q0 45 -17.5 58.5t-33.5 13.5h-39v-760h-287v1276h-143z" />
<glyph unicode="&#x403;" horiz-adv-x="677" d="M84 0v1434h547v-158h-260v-1276h-287zM227 1505l86 215h273l-201 -215h-158z" />
<glyph unicode="&#x404;" horiz-adv-x="831" d="M84 256v922q0 37 5 82t26.5 83.5t63.5 64.5t118 26h238q76 0 117.5 -26t63 -64.5t27 -84t5.5 -81.5v-203h-287v254q0 18 -12.5 32.5t-32.5 14.5q-12 0 -28.5 -9.5t-16.5 -37.5v-412h229v-158h-229v-454q0 -29 16 -38t29 -9q20 0 32.5 14t12.5 33v297h287v-246 q0 -37 -5.5 -82t-27 -84t-63.5 -64.5t-117 -25.5h-238q-76 0 -118 25.5t-63.5 64.5t-26.5 84t-5 82z" />
<glyph unicode="&#x405;" horiz-adv-x="831" d="M84 256v217h287v-268q0 -29 16 -38t29 -9q20 0 32.5 14t12.5 33v223q0 51 -21.5 76.5t-54.5 50.5l-213 162q-53 41 -70.5 86t-17.5 102v273q0 37 5 82t26.5 83.5t63.5 64.5t118 26h238q76 0 117.5 -26t63 -64.5t27 -84t5.5 -81.5v-189h-287v240q0 18 -12.5 32.5 t-32.5 14.5q-12 0 -28.5 -9.5t-16.5 -37.5v-207q0 -31 3 -49.5t11 -30.5t20.5 -22.5t28.5 -24.5l207 -170q49 -41 78 -83t29 -118v-268q0 -37 -5.5 -82t-27 -84t-63.5 -64.5t-117 -25.5h-238q-76 0 -118 25.5t-63.5 64.5t-26.5 84t-5 82z" />
<glyph unicode="&#x406;" horiz-adv-x="454" d="M84 0v1434h287v-1434h-287z" />
<glyph unicode="&#x407;" horiz-adv-x="561" d="M29 1520v200h209v-200h-209zM139 0v1434h287v-1434h-287zM328 1520v200h204v-200h-204z" />
<glyph unicode="&#x408;" horiz-adv-x="497" d="M47 0v158h29q16 0 33.5 13t17.5 58v1205h287v-1178q0 -37 -5.5 -82t-26 -84t-63.5 -64.5t-118 -25.5h-154z" />
<glyph unicode="&#x409;" horiz-adv-x="1241" d="M47 0v158h29q16 0 33.5 13t17.5 58v1205h666v-531h161q76 0 119 -25.5t64.5 -64.5t26.5 -84t5 -82v-391q0 -37 -5 -82t-26.5 -84t-64.5 -64.5t-119 -25.5h-448v1276h-92v-1020q0 -37 -5.5 -82t-26 -84t-63.5 -64.5t-118 -25.5h-154zM793 158h36q23 0 38.5 18.5t15.5 52.5 v445q0 35 -15.5 53t-38.5 18h-36v-587z" />
<glyph unicode="&#x40a;" horiz-adv-x="1196" d="M84 0v1434h287v-531h90v531h287v-531h163q76 0 118 -25.5t63.5 -64.5t26.5 -84t5 -82v-391q0 -37 -5 -82t-26.5 -84t-63.5 -64.5t-118 -25.5h-450v745h-90v-745h-287zM748 158h36q23 0 38.5 18.5t15.5 52.5v445q0 35 -15.5 53t-38.5 18h-36v-587z" />
<glyph unicode="&#x40b;" horiz-adv-x="925" d="M47 1276v158h717v-158h-287v-358h164q76 0 119 -26t63.5 -65t25.5 -84t5 -81v-662h-287v688q0 45 -17.5 58.5t-33.5 13.5h-39v-760h-287v1276h-143z" />
<glyph unicode="&#x40c;" horiz-adv-x="837" d="M84 0v1434h287v-617h10l94 617h287l-146 -689l175 -745h-287l-123 659h-10v-659h-287zM322 1505l86 215h272l-201 -215h-157z" />
<glyph unicode="&#x40e;" horiz-adv-x="854" d="M47 1434h303l94 -709h11l61 709h291l-217 -1186q-16 -90 -44 -139.5t-65 -74t-80 -29.5t-88 -5h-176v158h47q39 0 62.5 9t36 22.5t15.5 31t5 35.5l8 80zM150 1671v49h241v-49q0 -20 13.5 -35.5t37.5 -15.5q25 0 38.5 17.5t13.5 33.5v49h241v-49q0 -59 -19.5 -92 t-47 -49.5t-58 -20.5t-53.5 -4h-229q-63 0 -99 17.5t-53.5 43t-21.5 54.5t-4 51z" />
<glyph unicode="&#x40f;" horiz-adv-x="831" d="M84 0v1434h287v-1276h90v1276h287v-1434h-203v-287h-258v287h-203z" />
<glyph unicode="&#x410;" horiz-adv-x="843" d="M47 0l150 1434h450l150 -1434h-281l-27 381h-135l-26 -381h-281zM365 539h114l-49 718h-16z" />
<glyph unicode="&#x411;" horiz-adv-x="831" d="M84 0v1434h635v-158h-348v-416h164q76 0 117.5 -25.5t63 -64.5t27 -84t5.5 -82v-348q0 -37 -5.5 -82t-27 -84t-63.5 -64.5t-117 -25.5h-451zM371 158h37q23 0 38 18.5t15 52.5v402q0 35 -15.5 53t-37.5 18h-37v-544z" />
<glyph unicode="&#x412;" horiz-adv-x="831" d="M84 0v1434h451q76 0 117.5 -26t63 -64.5t27 -84t5.5 -81.5v-230q0 -59 -18.5 -97t-47.5 -60.5t-62.5 -30.5t-66.5 -6v-15q72 2 112 -21.5t58 -55t21.5 -65.5t3.5 -52v-289q0 -37 -5.5 -82t-27 -84t-63.5 -64.5t-117 -25.5h-451zM371 158h37q23 0 38 18.5t15 52.5v359 q0 35 -15.5 53t-37.5 18h-37v-501zM371 817h37q23 0 38 18.5t15 53.5v315q0 35 -15.5 53.5t-37.5 18.5h-37v-459z" />
<glyph unicode="&#x413;" horiz-adv-x="677" d="M84 0v1434h547v-158h-260v-1276h-287z" />
<glyph unicode="&#x414;" horiz-adv-x="911" d="M47 158h14q29 0 45.5 15t24.5 36.5t10 46.5t2 45v1133h664v-1276h57v-416h-258v258h-301v-258h-258v416zM391 158h129v1118h-90v-1004q0 -43 -9 -69.5t-30 -44.5z" />
<glyph unicode="&#x415;" horiz-adv-x="724" d="M84 0v1434h582v-158h-295v-445h295v-157h-295v-516h307v-158h-594z" />
<glyph unicode="&#x416;" horiz-adv-x="1220" d="M47 0l174 745l-145 689h286l95 -617h10v617h287v-617h10l94 617h287l-146 -689l175 -745h-287l-123 659h-10v-659h-287v659h-10l-123 -659h-287z" />
<glyph unicode="&#x417;" horiz-adv-x="831" d="M84 256v246h287v-297q0 -29 16 -38t29 -9q20 0 32.5 14t12.5 33v360q0 16 -3 33.5t-14.5 31t-35 21.5t-62.5 8h-117v158h121q61 0 86 20.5t25 86.5v305q0 18 -12.5 32.5t-32.5 14.5q-12 0 -28.5 -9.5t-16.5 -37.5v-254h-287v203q0 37 5 82t26.5 83.5t63.5 64.5t118 26 h238q76 0 117.5 -26t63 -64.5t27 -84t5.5 -81.5v-230q0 -59 -18.5 -97t-47.5 -60.5t-62.5 -30.5t-66.5 -6v-15q72 2 112 -21.5t58 -55t21.5 -65.5t3.5 -52v-289q0 -37 -5.5 -82t-27 -84t-63.5 -64.5t-117 -25.5h-238q-76 0 -118 25.5t-63.5 64.5t-26.5 84t-5 82z" />
<glyph unicode="&#x418;" horiz-adv-x="870" d="M84 0v1434h287v-715h10l119 715h286v-1434h-286v715h-11l-118 -715h-287z" />
<glyph unicode="&#x419;" horiz-adv-x="870" d="M84 0v1434h287v-715h10l119 715h286v-1434h-286v715h-11l-118 -715h-287zM143 1671v49h240v-49q0 -23 14.5 -37t36.5 -14q25 0 38 15.5t13 35.5v49h240v-49q0 -23 -4 -51.5t-22.5 -54t-54.5 -43t-99 -17.5h-223q-63 0 -99.5 17.5t-53.5 43t-21.5 54.5t-4.5 51z" />
<glyph unicode="&#x41a;" horiz-adv-x="837" d="M84 0v1434h287v-617h10l94 617h287l-146 -689l175 -745h-287l-123 659h-10v-659h-287z" />
<glyph unicode="&#x41b;" horiz-adv-x="876" d="M47 0v158h29q16 0 33.5 13t17.5 58v1205h666v-1434h-287v1276h-92v-1020q0 -37 -5.5 -82t-26 -84t-63.5 -64.5t-118 -25.5h-154z" />
<glyph unicode="&#x41c;" horiz-adv-x="1286" d="M84 0v1434h373l186 -1008l186 1008h373v-1434h-287v899h-10l-147 -899h-230l-147 899h-10v-899h-287z" />
<glyph unicode="&#x41d;" horiz-adv-x="831" d="M84 0v1434h287v-603h90v603h287v-1434h-287v674h-90v-674h-287z" />
<glyph unicode="&#x41e;" horiz-adv-x="831" d="M84 256v922q0 37 5 82t26.5 83.5t63.5 64.5t118 26h238q76 0 117.5 -26t63 -64.5t27 -84t5.5 -81.5v-922q0 -37 -5.5 -82t-27 -84t-63.5 -64.5t-117 -25.5h-238q-76 0 -118 25.5t-63.5 64.5t-26.5 84t-5 82zM371 205q0 -29 16 -38t29 -9q20 0 32.5 14t12.5 33v1024 q0 18 -12.5 32.5t-32.5 14.5q-12 0 -28.5 -9.5t-16.5 -37.5v-1024z" />
<glyph unicode="&#x41f;" horiz-adv-x="831" d="M84 0v1434h664v-1434h-287v1276h-90v-1276h-287z" />
<glyph unicode="&#x420;" horiz-adv-x="819" d="M84 0v1434h451q76 0 117.5 -26t63 -64.5t27 -84t5.5 -81.5v-435q0 -37 -5.5 -82t-27 -83.5t-63.5 -64.5t-117 -26h-164v-487h-287zM371 645h37q23 0 38 18.5t15 53.5v487q0 35 -15.5 53.5t-37.5 18.5h-37v-631z" />
<glyph unicode="&#x421;" horiz-adv-x="831" d="M84 256v922q0 37 5 82t26.5 83.5t63.5 64.5t118 26h238q76 0 117.5 -26t63 -64.5t27 -84t5.5 -81.5v-203h-287v254q0 18 -12.5 32.5t-32.5 14.5q-12 0 -28.5 -9.5t-16.5 -37.5v-1024q0 -29 16 -38t29 -9q20 0 32.5 14t12.5 33v297h287v-246q0 -37 -5.5 -82t-27 -84 t-63.5 -64.5t-117 -25.5h-238q-76 0 -118 25.5t-63.5 64.5t-26.5 84t-5 82z" />
<glyph unicode="&#x422;" horiz-adv-x="724" d="M47 1276v158h631v-158h-172v-1276h-287v1276h-172z" />
<glyph unicode="&#x423;" horiz-adv-x="854" d="M47 1434h303l94 -709h11l61 709h291l-217 -1186q-16 -90 -44 -139.5t-65 -74t-80 -29.5t-88 -5h-176v158h47q39 0 62.5 9t36 22.5t15.5 31t5 35.5l8 80z" />
<glyph unicode="&#x424;" horiz-adv-x="1208" d="M84 399v707q0 37 5 82t26.5 84t63.5 64.5t118 25.5h164v100h287v-100h163q76 0 118 -25.5t63.5 -64.5t26.5 -84t5 -82v-707q0 -37 -5 -82t-26.5 -83.5t-63.5 -64.5t-118 -26h-163v-143h-287v143h-164q-76 0 -118 26t-63.5 64.5t-26.5 83.5t-5 82zM371 373q0 -6 1 -17.5 t6 -24t15 -21.5t31 -9h37v903h-37q-20 0 -30.5 -9t-15.5 -21.5t-6 -23.5t-1 -17v-760zM748 301h36q23 0 38.5 18.5t15.5 53.5v760q0 35 -15.5 53t-38.5 18h-36v-903z" />
<glyph unicode="&#x425;" horiz-adv-x="829" d="M47 0l148 731l-140 703h291l64 -502h10l63 502h291l-139 -703l147 -731h-293l-69 516h-10l-70 -516h-293z" />
<glyph unicode="&#x426;" horiz-adv-x="851" d="M84 0v1434h287v-1276h90v1276h287v-1276h57v-416h-258v258h-463z" />
<glyph unicode="&#x427;" horiz-adv-x="819" d="M72 772v662h286v-689q0 -35 15.5 -53t38.5 -18h37v760h286v-1434h-286v516h-164q-76 0 -118 25.5t-63.5 64.5t-26.5 84t-5 82z" />
<glyph unicode="&#x428;" horiz-adv-x="1208" d="M84 0v1434h287v-1276h90v1276h287v-1276h90v1276h286v-1434h-1040z" />
<glyph unicode="&#x429;" horiz-adv-x="1228" d="M84 0v1434h287v-1276h90v1276h287v-1276h90v1276h286v-1276h58v-416h-258v258h-840z" />
<glyph unicode="&#x42a;" horiz-adv-x="954" d="M47 1276v158h459v-531h164q76 0 118.5 -25.5t63 -64.5t26 -84t5.5 -82v-391q0 -37 -5.5 -82t-26 -84t-63.5 -64.5t-118 -25.5h-451v1276h-172zM506 158h39q16 0 33.5 13t17.5 58v445q0 45 -17.5 58t-33.5 13h-39v-587z" />
<glyph unicode="&#x42b;" horiz-adv-x="1208" d="M84 0v1434h287v-531h164q76 0 117.5 -25.5t63 -64.5t27 -84t5.5 -82v-391q0 -37 -5.5 -82t-27 -84t-63.5 -64.5t-117 -25.5h-451zM371 158h37q23 0 38 18.5t15 52.5v445q0 35 -15.5 53t-37.5 18h-37v-587zM838 0v1434h286v-1434h-286z" />
<glyph unicode="&#x42c;" horiz-adv-x="819" d="M84 0v1434h287v-531h164q76 0 117.5 -25.5t63 -64.5t27 -84t5.5 -82v-391q0 -37 -5.5 -82t-27 -84t-63.5 -64.5t-117 -25.5h-451zM371 158h37q23 0 38 18.5t15 52.5v445q0 35 -15.5 53t-37.5 18h-37v-587z" />
<glyph unicode="&#x42d;" horiz-adv-x="831" d="M84 256v246h287v-297q0 -29 16 -38t29 -9q20 0 32.5 14t12.5 33v454h-232v158h232v412q0 18 -12.5 32.5t-32.5 14.5q-12 0 -28.5 -9.5t-16.5 -37.5v-254h-287v203q0 37 5 82t26.5 83.5t63.5 64.5t118 26h238q76 0 117.5 -26t63 -64.5t27 -84t5.5 -81.5v-922 q0 -37 -5.5 -82t-27 -84t-63.5 -64.5t-117 -25.5h-238q-76 0 -118 25.5t-63.5 64.5t-26.5 84t-5 82z" />
<glyph unicode="&#x42e;" horiz-adv-x="1208" d="M84 0v1434h287v-603h90v347q0 37 5 82t26.5 83.5t63.5 64.5t118 26h237q76 0 118 -26t63.5 -64.5t26.5 -84t5 -81.5v-922q0 -37 -5 -82t-26.5 -84t-63.5 -64.5t-118 -25.5h-237q-76 0 -118 25.5t-63.5 64.5t-26.5 84t-5 82v418h-90v-674h-287zM748 205q0 -29 16 -38 t29 -9q12 0 28.5 9t16.5 38v1024q0 29 -16.5 38t-28.5 9t-28.5 -9.5t-16.5 -37.5v-1024z" />
<glyph unicode="&#x42f;" horiz-adv-x="833" d="M47 0l174 559q-49 4 -76.5 26.5t-40 50.5t-15.5 55.5t-3 41.5v445q0 37 5 82t26.5 83.5t63.5 64.5t118 26h451v-1434h-287v545h-10l-109 -545h-297zM373 774q0 -45 17.5 -58.5t33.5 -13.5h39v574h-39q-16 0 -33.5 -13.5t-17.5 -58.5v-430z" />
<glyph unicode="&#x430;" d="M72 166v291q0 68 46 103.5t140 78.5q31 14 56.5 27.5t44 30t28.5 40t10 58.5v163q0 23 -15 31t-26 8q-16 0 -29.5 -11t-13.5 -28v-176h-241v162q0 74 18.5 115t46 60.5t61 23.5t62.5 4h193q68 0 105.5 -18.5t55 -48t21.5 -65.5t4 -71v-944h-242v51q-37 -31 -88 -47 t-98 -16q-49 0 -78 18.5t-42 45t-16 58t-3 56.5zM313 188q0 -10 10.5 -23t32.5 -13q41 0 41 36v373q-61 -18 -72.5 -49t-11.5 -57v-267z" />
<glyph unicode="&#x431;" d="M72 203v975q0 88 29.5 139t70.5 77.5t84 33t72 6.5h311v-170h-242q-31 0 -48 -9.5t-25.5 -22.5t-9.5 -30.5t-1 -34.5v-71q37 29 87.5 46t101.5 17q53 0 81.5 -22.5t41 -51t13.5 -59.5t1 -45v-778q0 -35 -4 -71t-21.5 -65.5t-55.5 -48t-105 -18.5h-193q-29 0 -62.5 4 t-61 23.5t-46 60.5t-18.5 115zM313 186q0 -10 10.5 -23t32.5 -13q41 0 41 36v770q0 23 -15 31t-26 8q-16 0 -29.5 -11t-13.5 -30v-768z" />
<glyph unicode="&#x432;" d="M72 0v1147h360q74 0 115 -18.5t61.5 -45t25.5 -57.5t5 -55v-221q0 -59 -44 -98.5t-122 -41.5v-14q61 -2 95 -21.5t49.5 -45t18.5 -50t3 -37.5v-266q0 -66 -23.5 -100.5t-56.5 -52t-67.5 -20.5t-59.5 -3h-360zM313 152h31q23 0 38 15t15 44v227q0 45 -16 65.5t-37 20.5 h-31v-372zM313 674h31q12 0 32.5 14t20.5 68v184q0 39 -20.5 48t-32.5 9h-31v-323z" />
<glyph unicode="&#x433;" d="M72 203v203q0 25 2 50t10 49.5t24.5 48.5t45.5 44l168 123q20 14 47.5 43t27.5 70v124q0 23 -15 31t-26 8q-16 0 -29.5 -11t-13.5 -28v-155h-241v141q0 74 18.5 115t46 60.5t61 23.5t62.5 4h193q68 0 105.5 -18.5t55 -48t21.5 -65.5t4 -71v-158q0 -27 -1 -48t-7 -41.5 t-20.5 -40t-41.5 -40.5l-182 -145q-29 -23 -51.5 -43t-22.5 -72v-170q0 -10 10.5 -23t32.5 -13q41 0 41 36v187h242v-170q0 -35 -4 -71t-21.5 -65.5t-55.5 -48t-105 -18.5h-193q-29 0 -62.5 4t-61 23.5t-46 60.5t-18.5 115z" />
<glyph unicode="&#x434;" d="M72 -129h241v-55q0 -16 13.5 -27.5t29.5 -11.5q10 0 25.5 8t15.5 31v260q-37 -35 -87 -55.5t-99 -20.5q-55 0 -84 23.5t-41 54.5t-13 62.5t-1 49.5v791q0 25 3 56.5t16 58t42 45t78 18.5q47 0 98 -16.5t88 -46.5v51h242v-1317q0 -35 -4 -70.5t-21.5 -65.5t-55.5 -48.5 t-105 -18.5h-193q-29 0 -62.5 4t-61 23.5t-46 60.5t-18.5 115v41zM313 215q0 -20 15.5 -29.5t27.5 -9.5q10 0 25.5 7t15.5 32v741q0 23 -15 31t-26 8q-16 0 -29.5 -11t-13.5 -28v-741z" />
<glyph unicode="&#x435;" d="M72 203v741q0 74 18.5 115t46 60.5t61 23.5t62.5 4h193q68 0 105.5 -18.5t55 -48t21.5 -65.5t4 -71v-426h-326v-332q0 -10 10.5 -23t32.5 -13q41 0 41 36v215h242v-198q0 -35 -4 -71t-21.5 -65.5t-55.5 -48t-105 -18.5h-193q-29 0 -62.5 4t-61 23.5t-46 60.5t-18.5 115z M313 668h84v290q0 23 -15 31t-26 8q-16 0 -29.5 -11t-13.5 -28v-290z" />
<glyph unicode="&#x436;" horiz-adv-x="1007" d="M25 0l137 594l-125 553h250l86 -496h10v496h242v-496h10l86 496h250l-125 -553l137 -594h-246l-102 541h-10v-541h-242v541h-10l-103 -541h-245z" />
<glyph unicode="&#x437;" d="M72 203v198h241v-215q0 -10 10.5 -23t32.5 -13q41 0 41 36v246q0 14 -1 28.5t-9 27t-24.5 20.5t-49.5 8h-82v150h82q31 0 48.5 9t25.5 23.5t9 29.5t1 28v202q0 23 -15 31t-26 8q-16 0 -29.5 -11t-13.5 -28v-170h-241v156q0 74 18.5 115t46 60.5t61 23.5t62.5 4h193 q68 0 105.5 -18.5t55 -48t21.5 -65.5t4 -71v-199q0 -59 -35 -102t-102 -41v-14q49 2 76.5 -16.5t41 -43t16.5 -49t3 -35.5v-241q0 -35 -4 -71t-21.5 -65.5t-55.5 -48t-105 -18.5h-193q-29 0 -62.5 4t-61 23.5t-46 60.5t-18.5 115z" />
<glyph unicode="&#x438;" d="M72 166v981h241v-959q0 -10 10.5 -23t32.5 -13q41 0 41 36v959h242v-1147h-242v51q-37 -31 -88 -47t-98 -16q-49 0 -78 18.5t-42 45t-16 58t-3 56.5z" />
<glyph unicode="&#x439;" d="M72 166v981h241v-959q0 -10 10.5 -23t32.5 -13q41 0 41 36v959h242v-1147h-242v51q-37 -31 -88 -47t-98 -16q-49 0 -78 18.5t-42 45t-16 58t-3 56.5zM98 1356v78h215v-64q0 -16 14.5 -26.5t28.5 -10.5q10 0 25.5 7.5t15.5 29.5v64h215v-78q0 -16 -3 -40t-16 -45.5 t-43 -36.5t-83 -15h-225q-49 0 -78 15t-43.5 36.5t-18.5 45t-4 40.5z" />
<glyph unicode="&#x43a;" horiz-adv-x="698" d="M72 0v1147h241v-496h11l88 496h247l-122 -553l137 -594h-246l-104 541h-11v-541h-241z" />
<glyph unicode="&#x43b;" horiz-adv-x="735" d="M25 0v150h14q41 0 50 22.5t9 48.5v926h566v-1147h-242v997h-82v-788q0 -76 -28.5 -118t-66.5 -62.5t-76 -24.5t-56 -4h-88z" />
<glyph unicode="&#x43c;" horiz-adv-x="1003" d="M72 0v1147h286l144 -680l143 680h287v-1147h-242v571h-10l-109 -571h-139l-108 571h-11v-571h-241z" />
<glyph unicode="&#x43d;" d="M72 0v1147h241v-473h84v473h242v-1147h-242v524h-84v-524h-241z" />
<glyph unicode="&#x43e;" d="M72 203v741q0 74 18.5 115t46 60.5t61 23.5t62.5 4h193q68 0 105.5 -18.5t55 -48t21.5 -65.5t4 -71v-741q0 -35 -4 -71t-21.5 -65.5t-55.5 -48t-105 -18.5h-193q-29 0 -62.5 4t-61 23.5t-46 60.5t-18.5 115zM313 186q0 -10 10.5 -23t32.5 -13q41 0 41 36v772q0 23 -15 31 t-26 8q-16 0 -29.5 -11t-13.5 -28v-772z" />
<glyph unicode="&#x43f;" d="M72 0v1147h241v-51q37 29 87.5 46t101.5 17q53 0 81.5 -22.5t41 -51t13.5 -59.5t1 -45v-981h-242v956q0 23 -15 31t-26 8q-16 0 -29.5 -11t-13.5 -28v-956h-241z" />
<glyph unicode="&#x440;" d="M72 -373v1520h241v-51q37 29 87.5 46t101.5 17q53 0 81.5 -22.5t41 -51t13.5 -59.5t1 -45v-815q0 -16 -1 -46t-13.5 -58.5t-41 -51t-81.5 -22.5q-51 0 -101.5 17.5t-87.5 45.5v-424h-241zM313 188q0 -10 10.5 -23t32.5 -13q41 0 41 36v768q0 23 -15 31t-26 8 q-16 0 -29.5 -11t-13.5 -28v-768z" />
<glyph unicode="&#x441;" d="M72 203v741q0 74 18.5 115t46 60.5t61 23.5t62.5 4h193q68 0 105.5 -18.5t55 -48t21.5 -65.5t4 -71v-156h-242v170q0 23 -15 31t-26 8q-16 0 -29.5 -11t-13.5 -28v-772q0 -10 10.5 -23t32.5 -13q41 0 41 36v215h242v-198q0 -35 -4 -71t-21.5 -65.5t-55.5 -48t-105 -18.5 h-193q-29 0 -62.5 4t-61 23.5t-46 60.5t-18.5 115z" />
<glyph unicode="&#x442;" horiz-adv-x="1036" d="M72 0v1147h241v-51q45 35 96.5 49t92.5 14q18 0 59 -12t70 -60q6 6 24.5 17.5t44 24t57 21.5t68.5 9q53 0 82 -22.5t41.5 -51t14.5 -59.5t2 -45v-981h-242v956q0 23 -15.5 31t-25.5 8q-16 0 -29.5 -11t-13.5 -28v-956h-242v956q0 23 -15 31t-26 8q-16 0 -29.5 -11 t-13.5 -28v-956h-241z" />
<glyph unicode="&#x443;" d="M72 -129h241v-55q0 -16 13.5 -27.5t29.5 -11.5q10 0 25.5 8t15.5 31v260q-37 -35 -87 -55.5t-99 -20.5q-55 0 -84 23.5t-41 54.5t-13 62.5t-1 49.5v957h241v-932q0 -20 15.5 -29.5t27.5 -9.5q10 0 25.5 7t15.5 32v932h242v-1317q0 -35 -4 -70.5t-21.5 -65.5t-55.5 -48.5 t-105 -18.5h-193q-29 0 -62.5 4t-61 23.5t-46 60.5t-18.5 115v41z" />
<glyph unicode="&#x444;" horiz-adv-x="1036" d="M72 166v815q0 25 3 56.5t16 58t42 45t78 18.5q47 0 98 -16.5t88 -46.5v338h242v-338q37 31 88 47t98 16q49 0 78 -18.5t42 -45t16.5 -58t3.5 -56.5v-815q0 -25 -3.5 -56.5t-16.5 -58t-42 -45t-78 -18.5q-47 0 -98 16t-88 47v-424h-242v424q-37 -31 -88 -47t-98 -16 q-49 0 -78 18.5t-42 45t-16 58t-3 56.5zM313 188q0 -10 10.5 -23t32.5 -13q41 0 41 36v768q0 23 -15 31t-26 8q-16 0 -29.5 -11t-13.5 -28v-768zM639 188q0 -10 10 -23t33 -13q41 0 41 36v768q0 23 -15.5 31t-25.5 8q-16 0 -29.5 -11t-13.5 -28v-768z" />
<glyph unicode="&#x445;" horiz-adv-x="702" d="M37 0l125 600l-123 547h248l59 -457h12l60 457h248l-125 -547l125 -600h-248l-62 510h-10l-61 -510h-248z" />
<glyph unicode="&#x446;" horiz-adv-x="735" d="M72 166v981h241v-959q0 -10 10.5 -23t32.5 -13q41 0 41 36v959h242v-995h72v-353h-201v203h-113v49q-37 -31 -88 -47t-98 -16q-49 0 -78 18.5t-42 45t-16 58t-3 56.5z" />
<glyph unicode="&#x447;" d="M72 588v559h241v-535q0 -16 14.5 -26.5t28.5 -10.5q10 0 25.5 7.5t15.5 29.5v535h242v-1147h-242v473q-37 -31 -86 -52.5t-100 -21.5q-55 0 -84 23.5t-41 54.5t-13 62.5t-1 48.5z" />
<glyph unicode="&#x448;" horiz-adv-x="1036" d="M72 166v981h241v-959q0 -10 10.5 -23t32.5 -13q41 0 41 36v959h242v-959q0 -10 10 -23t33 -13q41 0 41 36v959h242v-1147h-242v51q-43 -35 -94 -49t-92 -14q-25 0 -63 12t-66 59q-45 -35 -97.5 -53t-99.5 -18q-55 0 -84 22.5t-41 51t-13 58.5t-1 46z" />
<glyph unicode="&#x449;" horiz-adv-x="1060" d="M72 166v981h241v-959q0 -10 10.5 -23t32.5 -13q41 0 41 36v959h242v-959q0 -10 10 -23t33 -13q41 0 41 36v959h242v-995h71v-353h-198v203h-115v49q-43 -35 -94 -49t-92 -14q-25 0 -63 12t-66 59q-45 -35 -97.5 -53t-99.5 -18q-55 0 -84 22.5t-41 51t-13 58.5t-1 46z" />
<glyph unicode="&#x44a;" horiz-adv-x="813" d="M25 997v150h391v-422h133q20 0 53 -2t63.5 -17.5t53 -51.5t22.5 -105v-373q0 -25 -4 -55.5t-22.5 -57t-57.5 -45t-108 -18.5h-375v997h-149zM416 150h30q39 0 46.5 27.5t7.5 47.5v275q0 20 -7.5 47.5t-46.5 27.5h-30v-425z" />
<glyph unicode="&#x44b;" horiz-adv-x="1038" d="M72 0v1147h241v-422h133q74 0 113 -18.5t56.5 -46t20.5 -57.5t3 -54v-373q0 -25 -3 -55.5t-20.5 -57t-56.5 -45t-113 -18.5h-374zM313 150h31q39 0 46 27.5t7 47.5v277q0 20 -7 48t-46 28h-31v-428zM725 0v1147h242v-1147h-242z" />
<glyph unicode="&#x44c;" d="M72 0v1147h241v-422h133q74 0 113 -18.5t56.5 -46t20.5 -57.5t3 -54v-373q0 -25 -3 -55.5t-20.5 -57t-56.5 -45t-113 -18.5h-374zM313 150h31q39 0 46 27.5t7 47.5v275q0 20 -7 47.5t-46 27.5h-31v-425z" />
<glyph unicode="&#x44d;" d="M72 203v198h241v-215q0 -10 10.5 -23t32.5 -13q41 0 41 36v332h-176v150h176v290q0 23 -15 31t-26 8q-16 0 -29.5 -11t-13.5 -28v-170h-241v156q0 74 18.5 115t46 60.5t61 23.5t62.5 4h193q68 0 105.5 -18.5t55 -48t21.5 -65.5t4 -71v-741q0 -35 -4 -71t-21.5 -65.5 t-55.5 -48t-105 -18.5h-193q-29 0 -62.5 4t-61 23.5t-46 60.5t-18.5 115z" />
<glyph unicode="&#x44e;" horiz-adv-x="1036" d="M72 0v1147h241v-473h84v270q0 76 19.5 117t49.5 60.5t62.5 22.5t57.5 3h190q68 0 106 -18.5t56 -48t22.5 -65.5t4.5 -71v-741q0 -35 -4.5 -71t-22.5 -65.5t-56 -48t-106 -18.5h-190q-25 0 -57.5 3t-62.5 22.5t-49.5 60.5t-19.5 117v321h-84v-524h-241zM639 186 q0 -10 10 -23t33 -13q41 0 41 36v772q0 23 -15.5 31t-25.5 8q-16 0 -29.5 -11t-13.5 -28v-772z" />
<glyph unicode="&#x44f;" horiz-adv-x="712" d="M63 0l134 446q-47 6 -72 29t-37 51.5t-14 56t-2 42.5v325q0 27 3 62t20.5 64.5t55 50t109.5 20.5h381v-1147h-242v446h-10l-90 -446h-236zM313 647q0 -31 16.5 -47t41.5 -16h28v413h-28q-18 0 -38 -14t-20 -61v-275z" />
<glyph unicode="&#x451;" d="M72 203v741q0 74 18.5 115t46 60.5t61 23.5t62.5 4h193q68 0 105.5 -18.5t55 -48t21.5 -65.5t4 -71v-426h-326v-332q0 -10 10.5 -23t32.5 -13q41 0 41 36v215h242v-198q0 -35 -4 -71t-21.5 -65.5t-55.5 -48t-105 -18.5h-193q-29 0 -62.5 4t-61 23.5t-46 60.5t-18.5 115z M72 1233v201h241v-201h-241zM313 668h84v290q0 23 -15 31t-26 8q-16 0 -29.5 -11t-13.5 -28v-290zM397 1233v201h242v-201h-242z" />
<glyph unicode="&#x452;" d="M0 1249v115h72v70h241v-70h201v-115h-201v-153q37 29 87.5 46t101.5 17q53 0 81.5 -22.5t41 -51t13.5 -59.5t1 -45v-1151q0 -78 -20.5 -119t-51 -59.5t-66.5 -21.5t-65 -3h-160v150h15q39 0 61.5 11t31.5 27.5t11 35t2 34.5v1071q0 23 -15 31t-26 8q-16 0 -29.5 -11 t-13.5 -28v-956h-241v1249h-72z" />
<glyph unicode="&#x453;" d="M72 203v203q0 25 2 50t10 49.5t24.5 48.5t45.5 44l168 123q20 14 47.5 43t27.5 70v124q0 23 -15 31t-26 8q-16 0 -29.5 -11t-13.5 -28v-155h-241v141q0 74 18.5 115t46 60.5t61 23.5t62.5 4h193q68 0 105.5 -18.5t55 -48t21.5 -65.5t4 -71v-158q0 -27 -1 -48t-7 -41.5 t-20.5 -40t-41.5 -40.5l-182 -145q-29 -23 -51.5 -43t-22.5 -72v-170q0 -10 10.5 -23t32.5 -13q41 0 41 36v187h242v-170q0 -35 -4 -71t-21.5 -65.5t-55.5 -48t-105 -18.5h-193q-29 0 -62.5 4t-61 23.5t-46 60.5t-18.5 115zM225 1204l107 230h252l-195 -230h-164z" />
<glyph unicode="&#x454;" d="M72 203v741q0 76 19.5 118t48 60.5t61 21.5t59.5 3h193q27 0 59.5 -3t61 -22.5t47 -60.5t18.5 -117v-156h-242v170q0 23 -15 31t-26 8q-16 0 -29.5 -11t-13.5 -28v-290h176v-150h-176v-332q0 -10 10.5 -23t32.5 -13q41 0 41 36v215h242v-198q0 -76 -18.5 -117t-47 -60.5 t-61.5 -22.5t-59 -3h-193q-27 0 -59.5 3t-61 21.5t-48 59.5t-19.5 119z" />
<glyph unicode="&#x455;" d="M72 203v170h241v-187q0 -10 10.5 -23t32.5 -13q41 0 41 36v170q0 27 -5 44.5t-14 28.5t-23.5 20.5t-30.5 21.5l-183 145q-51 41 -60 81t-9 89v158q0 76 19.5 118t48 60.5t61 21.5t59.5 3h193q27 0 59.5 -3t61 -22.5t47 -60.5t18.5 -117v-141h-242v155q0 23 -15 31t-26 8 q-16 0 -29.5 -11t-13.5 -28v-124q0 -43 28 -70t50 -43l168 -123q59 -43 69.5 -92t10.5 -100v-203q0 -76 -18.5 -117t-47 -60.5t-61.5 -22.5t-59 -3h-193q-27 0 -59.5 3t-61 21.5t-48 59.5t-19.5 119z" />
<glyph unicode="&#x456;" horiz-adv-x="385" d="M72 0v1147h241v-1147h-241zM72 1233v201h241v-201h-241z" />
<glyph unicode="&#x457;" horiz-adv-x="557" d="M37 1233v201h201v-201h-201zM158 0v1147h241v-1147h-241zM319 1233v201h201v-201h-201z" />
<glyph unicode="&#x458;" horiz-adv-x="385" d="M72 -373v1520h241v-1520h-241zM72 1233v201h241v-201h-241z" />
<glyph unicode="&#x459;" horiz-adv-x="1062" d="M25 0v150h14q41 0 50 22.5t9 48.5v926h566v-422h135q20 0 53 -2t63.5 -17.5t53 -51.5t22.5 -105v-373q0 -25 -4 -55.5t-22.5 -57t-57.5 -45t-108 -18.5h-377v997h-82v-788q0 -76 -28.5 -118t-66.5 -62.5t-76 -24.5t-56 -4h-88zM664 150h30q18 0 29.5 8t18 19t7.5 24.5 t1 23.5v275q0 10 -1 23.5t-7.5 24.5t-17.5 19t-30 8h-30v-425z" />
<glyph unicode="&#x45a;" horiz-adv-x="1036" d="M72 0v1147h241v-422h84v422h242v-422h133q63 0 101 -12.5t58.5 -33t27 -48t6.5 -56.5v-399q0 -25 -4.5 -55.5t-22.5 -57t-57 -45t-109 -18.5h-375v575h-84v-575h-241zM639 150h31q39 0 46 27.5t7 47.5v273q0 10 -1 23.5t-6 25.5t-15.5 20t-30.5 8h-31v-425z" />
<glyph unicode="&#x45b;" d="M0 1249v115h72v70h241v-70h201v-115h-201v-153q37 29 87.5 46t101.5 17q53 0 81.5 -22.5t41 -51t13.5 -59.5t1 -45v-981h-242v956q0 23 -15 31t-26 8q-16 0 -29.5 -11t-13.5 -28v-956h-241v1249h-72z" />
<glyph unicode="&#x45c;" horiz-adv-x="698" d="M72 0v1147h241v-496h11l88 496h247l-122 -553l137 -594h-246l-104 541h-11v-541h-241zM252 1204l106 230h252l-194 -230h-164z" />
<glyph unicode="&#x45e;" d="M72 -129h241v-55q0 -16 13.5 -27.5t29.5 -11.5q10 0 25.5 8t15.5 31v260q-37 -35 -87 -55.5t-99 -20.5q-55 0 -84 23.5t-41 54.5t-13 62.5t-1 49.5v957h241v-932q0 -20 15.5 -29.5t27.5 -9.5q10 0 25.5 7t15.5 32v932h242v-1317q0 -35 -4 -70.5t-21.5 -65.5t-55.5 -48.5 t-105 -18.5h-193q-29 0 -62.5 4t-61 23.5t-46 60.5t-18.5 115v41zM98 1356v78h215v-64q0 -16 14.5 -26.5t28.5 -10.5q10 0 25.5 7.5t15.5 29.5v64h215v-78q0 -16 -3 -40t-16 -45.5t-43 -36.5t-83 -15h-225q-49 0 -78 15t-43.5 36.5t-18.5 45t-4 40.5z" />
<glyph unicode="&#x45f;" d="M72 0v1147h241v-997h84v997h242v-1147h-184v-244h-199v244h-184z" />
<glyph unicode="&#x490;" horiz-adv-x="735" d="M84 0v1434h375v172h229v-330h-317v-1276h-287z" />
<glyph unicode="&#x491;" horiz-adv-x="604" d="M72 0v1147h301v201h200v-351h-260v-997h-241z" />
<glyph unicode="&#x2000;" horiz-adv-x="860" />
<glyph unicode="&#x2001;" horiz-adv-x="1720" />
<glyph unicode="&#x2002;" horiz-adv-x="860" />
<glyph unicode="&#x2003;" horiz-adv-x="1720" />
<glyph unicode="&#x2004;" horiz-adv-x="573" />
<glyph unicode="&#x2005;" horiz-adv-x="430" />
<glyph unicode="&#x2006;" horiz-adv-x="286" />
<glyph unicode="&#x2007;" horiz-adv-x="286" />
<glyph unicode="&#x2008;" horiz-adv-x="215" />
<glyph unicode="&#x2009;" horiz-adv-x="344" />
<glyph unicode="&#x200a;" horiz-adv-x="95" />
<glyph unicode="&#x2010;" horiz-adv-x="487" d="M72 530v201h344v-201h-344z" />
<glyph unicode="&#x2011;" horiz-adv-x="487" d="M72 530v201h344v-201h-344z" />
<glyph unicode="&#x2012;" horiz-adv-x="487" d="M72 530v201h344v-201h-344z" />
<glyph unicode="&#x2013;" horiz-adv-x="983" d="M72 631v172h839v-172h-839z" />
<glyph unicode="&#x2014;" horiz-adv-x="1046" d="M72 559v143h903v-143h-903z" />
<glyph unicode="&#x2018;" horiz-adv-x="401" d="M72 918v258q0 47 13 110.5t73 147.5h200q-53 -47 -85.5 -113t-30.5 -145h88v-258h-258z" />
<glyph unicode="&#x2019;" horiz-adv-x="401" d="M43 918q53 47 86 112.5t31 145.5h-88v258h258v-258q0 -47 -13.5 -111t-72.5 -147h-201z" />
<glyph unicode="&#x201a;" horiz-adv-x="401" d="M43 -258q53 47 86 112.5t31 145.5h-88v258h258v-258q0 -47 -13.5 -110.5t-72.5 -147.5h-201z" />
<glyph unicode="&#x201c;" horiz-adv-x="745" d="M72 918v258q0 47 13 110.5t73 147.5h186q-63 -66 -82.5 -137.5t-19.5 -120.5h88v-258h-258zM416 918v258q0 47 13 110.5t73 147.5h200q-53 -47 -85.5 -113t-30.5 -145h88v-258h-258z" />
<glyph unicode="&#x201d;" horiz-adv-x="745" d="M43 918q53 47 86 112.5t31 145.5h-88v258h258v-258q0 -47 -13.5 -111t-72.5 -147h-201zM401 918q63 66 83 137t20 121h-88v258h258v-258q0 -47 -13.5 -111t-72.5 -147h-187z" />
<glyph unicode="&#x201e;" horiz-adv-x="745" d="M43 -258q53 47 86 112.5t31 145.5h-88v258h258v-258q0 -47 -13.5 -110.5t-72.5 -147.5h-201zM401 -258q63 66 83 137.5t20 120.5h-88v258h258v-258q0 -47 -13.5 -110.5t-72.5 -147.5h-187z" />
<glyph unicode="&#x2022;" horiz-adv-x="983" d="M233 717q0 53 20.5 100t55.5 82t82 55.5t101 20.5q53 0 100 -20.5t82 -55.5t55.5 -82t20.5 -100t-20.5 -100.5t-55.5 -82t-82 -55t-100 -20.5t-100.5 20.5t-82.5 55t-55.5 82t-20.5 100.5z" />
<glyph unicode="&#x2026;" horiz-adv-x="1204" d="M72 0v258h258v-258h-258zM473 0v258h258v-258h-258zM874 0v258h259v-258h-259z" />
<glyph unicode="&#x202f;" horiz-adv-x="344" />
<glyph unicode="&#x205f;" horiz-adv-x="430" />
<glyph unicode="&#x20ac;" horiz-adv-x="831" d="M31 479l51 185h63q-2 12 -2 28.5v32.5v27.5t2 27.5h-114l51 185h78q29 242 127 355.5t264 113.5q80 0 136 -16.5t79 -33.5v-225q-23 23 -65 39t-107 16q-86 0 -133 -57t-60 -192h320l-51 -185h-285q0 -12 -1 -26.5t-1 -28.5q0 -16 1 -31.5t1 -29.5h250l-51 -185h-183 q10 -141 59.5 -199.5t133.5 -58.5q66 0 107.5 15.5t64.5 37.5v-229q-20 -16 -73.5 -30.5t-141.5 -14.5q-158 0 -258 111.5t-129 367.5h-133z" />
<glyph unicode="&#x2122;" horiz-adv-x="1097" d="M72 1333v101h313v-101h-84v-616h-143v616h-86zM455 717v717h186l100 -473l99 473h186v-717h-143v405l-80 -405h-123l-82 405v-405h-143z" />
<glyph unicode="&#x25fc;" horiz-adv-x="1146" d="M0 0v1147h1147v-1147h-1147z" />
</font>
</defs>
</svg>
